<svg width="125" height="63" viewBox="0 0 125 63" fill="none" xmlns="http://www.w3.org/2000/svg">
<path d="M25.9461 24.0986L23.3256 21.4627C21.8144 19.9427 19.3703 19.8942 17.8 21.3531L15.9567 23.0657C15.3708 23.6101 15.3356 24.5259 15.8781 25.1136C16.4144 25.6946 17.317 25.7395 17.9083 25.2146L20.4535 22.9553L22.3193 24.6183L18.4144 28.4963C17.3 29.603 17.2279 31.382 18.249 32.5754L18.4511 32.8115L22.5221 36.827L16.9714 37.3495C16.2093 37.4212 15.6268 38.061 15.6268 38.8265C15.6268 39.7084 16.3916 40.3955 17.2684 40.3016L25.8754 39.3794C26.5264 39.3097 27.0459 38.8049 27.1344 38.1562C27.193 37.7264 27.0525 37.2934 26.7527 36.9799L21.9137 31.9192L24.3068 29.6884C24.3964 31.414 25.8667 32.741 27.5924 32.6538L31.1079 32.4762C31.8878 32.4369 32.5 31.793 32.5 31.0121C32.5 30.1492 31.7584 29.4729 30.8992 29.5522L27.2271 29.8912L27.3894 27.9848C27.4925 26.5417 26.9662 25.1246 25.9461 24.0986Z" fill="#E4D9CD"/>
<path d="M8.02383 43.0469L17.736 33.2983L16.5597 32.122C16.2081 31.691 16.0992 31.4193 15.9919 30.9052L5.96828 41.0028C5.42539 41.5497 5.40533 42.4258 5.92262 42.9969C6.47961 43.6119 7.43821 43.6348 8.02383 43.0469Z" fill="#E4D9CD"/>
<circle cx="29.0922" cy="21.2924" r="2.92035" fill="#58A6E5"/>
<path d="M47.836 35.75H44.044C43.892 35.75 43.78 35.718 43.708 35.654C43.644 35.582 43.612 35.47 43.612 35.318V33.914C43.612 33.762 43.644 33.654 43.708 33.59C43.78 33.518 43.892 33.482 44.044 33.482H47.272C47.376 33.482 47.452 33.45 47.5 33.386C47.556 33.314 47.584 33.23 47.584 33.134C47.584 32.998 47.556 32.898 47.5 32.834C47.452 32.77 47.376 32.734 47.272 32.726L45.472 32.474C44.912 32.394 44.46 32.21 44.116 31.922C43.78 31.634 43.612 31.154 43.612 30.482V29.222C43.612 28.542 43.832 28.022 44.272 27.662C44.712 27.294 45.32 27.11 46.096 27.11H49.456C49.608 27.11 49.716 27.146 49.78 27.218C49.852 27.282 49.888 27.39 49.888 27.542V28.97C49.888 29.122 49.852 29.234 49.78 29.306C49.716 29.37 49.608 29.402 49.456 29.402H46.66C46.556 29.402 46.476 29.438 46.42 29.51C46.364 29.574 46.336 29.658 46.336 29.762C46.336 29.866 46.364 29.954 46.42 30.026C46.476 30.098 46.556 30.138 46.66 30.146L48.448 30.386C49.008 30.466 49.46 30.65 49.804 30.938C50.148 31.226 50.32 31.706 50.32 32.378V33.638C50.32 34.318 50.096 34.842 49.648 35.21C49.208 35.57 48.604 35.75 47.836 35.75ZM55.1247 35.75H53.2647C53.1127 35.75 53.0007 35.718 52.9287 35.654C52.8647 35.582 52.8327 35.47 52.8327 35.318V27.542C52.8327 27.39 52.8647 27.282 52.9287 27.218C53.0007 27.146 53.1127 27.11 53.2647 27.11H56.9367C58.0247 27.11 58.7687 27.326 59.1687 27.758C59.5687 28.19 59.7687 28.754 59.7687 29.45V30.986C59.7687 31.682 59.5687 32.246 59.1687 32.678C58.7687 33.11 58.0247 33.326 56.9367 33.326H55.5567V35.318C55.5567 35.47 55.5207 35.582 55.4487 35.654C55.3847 35.718 55.2767 35.75 55.1247 35.75ZM55.5327 29.354V31.166H56.6127C56.8447 31.166 56.9967 31.106 57.0687 30.986C57.1407 30.866 57.1767 30.73 57.1767 30.578V29.942C57.1767 29.79 57.1407 29.654 57.0687 29.534C56.9967 29.414 56.8447 29.354 56.6127 29.354H55.5327ZM69.5324 33.482C69.5324 33.85 69.4764 34.186 69.3644 34.49C69.2604 34.786 69.0684 35.042 68.7884 35.258C68.5164 35.466 68.1364 35.63 67.6484 35.75C67.1684 35.87 66.5564 35.93 65.8124 35.93C65.0684 35.93 64.4524 35.87 63.9644 35.75C63.4764 35.63 63.0924 35.466 62.8124 35.258C62.5404 35.042 62.3484 34.786 62.2364 34.49C62.1324 34.186 62.0804 33.85 62.0804 33.482V29.39C62.0804 29.022 62.1324 28.69 62.2364 28.394C62.3484 28.09 62.5404 27.83 62.8124 27.614C63.0924 27.398 63.4764 27.23 63.9644 27.11C64.4524 26.99 65.0684 26.93 65.8124 26.93C66.5564 26.93 67.1684 26.99 67.6484 27.11C68.1364 27.23 68.5164 27.398 68.7884 27.614C69.0684 27.83 69.2604 28.09 69.3644 28.394C69.4764 28.69 69.5324 29.022 69.5324 29.39V33.482ZM64.8044 33.05C64.8044 33.21 64.8644 33.346 64.9844 33.458C65.1044 33.562 65.3804 33.614 65.8124 33.614C66.2444 33.614 66.5204 33.562 66.6404 33.458C66.7604 33.346 66.8204 33.21 66.8204 33.05V29.822C66.8204 29.67 66.7604 29.542 66.6404 29.438C66.5204 29.326 66.2444 29.27 65.8124 29.27C65.3804 29.27 65.1044 29.326 64.9844 29.438C64.8644 29.542 64.8044 29.67 64.8044 29.822V33.05ZM74.972 29.27V30.806H75.872C76.08 30.806 76.22 30.754 76.292 30.65C76.364 30.538 76.4 30.402 76.4 30.242V29.834C76.4 29.674 76.364 29.542 76.292 29.438C76.22 29.326 76.08 29.27 75.872 29.27H74.972ZM74.54 35.75H72.692C72.54 35.75 72.428 35.718 72.356 35.654C72.292 35.582 72.26 35.47 72.26 35.318V27.542C72.26 27.39 72.292 27.282 72.356 27.218C72.428 27.146 72.54 27.11 72.692 27.11H76.688C77.584 27.11 78.2 27.298 78.536 27.674C78.88 28.042 79.052 28.522 79.052 29.114V29.666C79.052 30.002 79 30.29 78.896 30.53C78.8 30.762 78.628 30.93 78.38 31.034C78.812 31.082 79.16 31.258 79.424 31.562C79.696 31.866 79.832 32.27 79.832 32.774V35.318C79.832 35.47 79.796 35.582 79.724 35.654C79.66 35.718 79.552 35.75 79.4 35.75H77.54C77.388 35.75 77.276 35.718 77.204 35.654C77.14 35.582 77.108 35.47 77.108 35.318V33.482C77.108 33.306 77.072 33.178 77 33.098C76.936 33.01 76.82 32.966 76.652 32.966H74.972V35.318C74.972 35.47 74.936 35.582 74.864 35.654C74.8 35.718 74.692 35.75 74.54 35.75ZM86.0947 35.75H84.1507C83.9987 35.75 83.8867 35.718 83.8147 35.654C83.7507 35.582 83.7187 35.47 83.7187 35.318V29.426H81.9547C81.8027 29.426 81.6907 29.394 81.6187 29.33C81.5547 29.258 81.5227 29.146 81.5227 28.994V27.542C81.5227 27.39 81.5547 27.282 81.6187 27.218C81.6907 27.146 81.8027 27.11 81.9547 27.11H88.2907C88.4427 27.11 88.5507 27.146 88.6147 27.218C88.6867 27.282 88.7227 27.39 88.7227 27.542V28.994C88.7227 29.146 88.6867 29.258 88.6147 29.33C88.5507 29.394 88.4427 29.426 88.2907 29.426H86.5267V35.318C86.5267 35.47 86.4907 35.582 86.4187 35.654C86.3547 35.718 86.2467 35.75 86.0947 35.75ZM91.3297 35.75C91.1777 35.75 91.0657 35.718 90.9937 35.654C90.9297 35.582 90.8977 35.47 90.8977 35.318V33.89C90.8977 33.738 90.9297 33.63 90.9937 33.566C91.0657 33.494 91.1777 33.458 91.3297 33.458H92.5177V29.426H91.3297C91.1777 29.426 91.0657 29.394 90.9937 29.33C90.9297 29.258 90.8977 29.146 90.8977 28.994V27.542C90.8977 27.39 90.9297 27.282 90.9937 27.218C91.0657 27.146 91.1777 27.11 91.3297 27.11H96.4417C96.5937 27.11 96.7017 27.146 96.7657 27.218C96.8377 27.282 96.8737 27.39 96.8737 27.542V28.994C96.8737 29.146 96.8377 29.258 96.7657 29.33C96.7017 29.394 96.5937 29.426 96.4417 29.426H95.2777V33.458H96.4417C96.5937 33.458 96.7017 33.494 96.7657 33.566C96.8377 33.63 96.8737 33.738 96.8737 33.89V35.318C96.8737 35.47 96.8377 35.582 96.7657 35.654C96.7017 35.718 96.5937 35.75 96.4417 35.75H91.3297ZM104.667 35.75H101.547C101.395 35.75 101.267 35.722 101.163 35.666C101.067 35.61 100.991 35.506 100.935 35.354L99.7593 32.414C99.6873 32.238 99.6273 32.086 99.5793 31.958C99.5313 31.822 99.4913 31.694 99.4593 31.574C99.4273 31.454 99.4033 31.33 99.3873 31.202C99.3793 31.066 99.3753 30.902 99.3753 30.71V27.542C99.3753 27.39 99.4073 27.282 99.4713 27.218C99.5433 27.146 99.6553 27.11 99.8073 27.11H101.715C101.867 27.11 101.983 27.146 102.063 27.218C102.143 27.282 102.183 27.39 102.183 27.542V30.854C102.183 30.934 102.191 31.014 102.207 31.094C102.223 31.174 102.247 31.258 102.279 31.346L102.843 33.026C102.867 33.106 102.895 33.162 102.927 33.194C102.959 33.218 103.007 33.23 103.071 33.23H103.203C103.267 33.23 103.315 33.218 103.347 33.194C103.379 33.162 103.407 33.106 103.431 33.026L103.995 31.334C104.027 31.246 104.051 31.162 104.067 31.082C104.083 31.002 104.091 30.922 104.091 30.842V27.542C104.091 27.39 104.123 27.282 104.187 27.218C104.259 27.146 104.371 27.11 104.523 27.11H106.407C106.559 27.11 106.667 27.146 106.731 27.218C106.803 27.282 106.839 27.39 106.839 27.542V30.71C106.839 30.902 106.831 31.066 106.815 31.202C106.807 31.33 106.787 31.454 106.755 31.574C106.723 31.694 106.683 31.822 106.635 31.958C106.587 32.086 106.527 32.238 106.455 32.414L105.279 35.354C105.223 35.506 105.143 35.61 105.039 35.666C104.943 35.722 104.819 35.75 104.667 35.75ZM112.536 29.63L111.972 31.454H113.856L113.292 29.63C113.26 29.558 113.224 29.506 113.184 29.474C113.152 29.442 113.112 29.426 113.064 29.426H112.764C112.716 29.426 112.672 29.442 112.632 29.474C112.6 29.506 112.568 29.558 112.536 29.63ZM111.852 35.318C111.852 35.47 111.816 35.582 111.744 35.654C111.68 35.718 111.572 35.75 111.42 35.75H109.656C109.504 35.75 109.392 35.718 109.32 35.654C109.256 35.582 109.224 35.47 109.224 35.318V32.15C109.224 31.91 109.26 31.634 109.332 31.322C109.412 31.01 109.532 30.646 109.692 30.23L110.736 27.506C110.784 27.37 110.856 27.27 110.952 27.206C111.056 27.142 111.188 27.11 111.348 27.11H114.576C114.728 27.11 114.852 27.142 114.948 27.206C115.052 27.27 115.128 27.37 115.176 27.506L116.22 30.23C116.38 30.646 116.496 31.01 116.568 31.322C116.648 31.634 116.688 31.91 116.688 32.15V35.318C116.688 35.47 116.652 35.582 116.58 35.654C116.516 35.718 116.408 35.75 116.256 35.75H114.444C114.284 35.75 114.164 35.718 114.084 35.654C114.012 35.582 113.976 35.47 113.976 35.318V33.638H111.852V35.318Z" fill="#E4D9CD"/>
</svg>
